<svg width="65" height="65" viewBox="0 0 65 65" fill="none" xmlns="http://www.w3.org/2000/svg">
<path d="M13.0887 37.6967C14.8613 43.1438 18.2598 47.2407 23.4293 49.7789C27.643 51.8481 32.099 52.3632 36.6642 51.2437C43.0318 49.6806 47.6225 45.8666 50.2865 39.9119C52.4165 35.1496 52.5601 30.2146 50.7442 25.3242C48.6935 19.8027 44.8792 15.88 39.3551 13.7065C33.7623 11.5063 28.2742 11.9276 22.8848 14.5625C22.8848 10.1724 22.8848 5.78971 22.8848 1.34004C23.7254 1.13906 24.5885 0.911295 25.4621 0.731164C26.3506 0.548055 27.2451 0.376857 28.1455 0.265205C29.0371 0.155043 29.939 0.122292 30.8365 0.064233C31.3241 0.0329706 31.8163 -0.0176447 32.3039 0.00617424C33.9762 0.0880519 35.6545 0.12378 37.3044 0.451291C38.0523 0.60016 38.8077 0.708834 39.5526 0.874077C40.109 0.997638 40.6565 1.17181 41.201 1.34301C41.9563 1.57823 42.7162 1.80153 43.4536 2.08587C44.3855 2.44464 45.3099 2.83319 46.2149 3.25597C47.7152 3.95566 49.1213 4.81909 50.4884 5.7525C52.3313 7.01193 54.0036 8.46935 55.5398 10.0771C57.1059 11.7162 58.4745 13.5145 59.6503 15.4543C60.3757 16.6526 61.0563 17.8749 61.5739 19.1804C61.9912 20.2359 62.4459 21.2795 62.8094 22.3528C63.0921 23.188 63.2746 24.0574 63.4735 24.9178C63.6216 25.5609 63.7368 26.2115 63.8415 26.8635C63.9462 27.5186 64.0509 28.1766 64.1003 28.8375C64.193 30.091 64.2768 31.3475 64.3067 32.6039C64.3246 33.3736 64.2514 34.1477 64.187 34.9173C64.1332 35.5709 64.0509 36.2244 63.9477 36.8735C63.8565 37.4451 63.7188 38.0078 63.6052 38.575C63.5124 39.038 63.4436 39.5069 63.3284 39.964C63.1759 40.5669 63.0128 41.1698 62.8094 41.7578C62.4923 42.6719 62.1722 43.5874 61.7922 44.4777C61.182 45.9113 60.4744 47.3002 59.6592 48.6341C58.6002 50.3654 57.3931 51.9836 56.0274 53.4857C54.6348 55.019 53.1181 56.4199 51.4517 57.6555C49.8437 58.8464 48.1669 59.9287 46.342 60.7624C45.2082 61.2804 44.0699 61.7955 42.9047 62.2362C42.0431 62.5622 41.1396 62.7855 40.2451 63.0162C39.3581 63.2455 38.4636 63.4584 37.5632 63.6251C36.8227 63.7621 36.0718 63.8559 35.3194 63.9065C34.1378 63.9854 32.9531 64.0226 31.7684 64.0524C31.1237 64.0687 30.4775 64.0539 29.8343 64.0092C29.1552 63.9616 28.4746 63.8901 27.806 63.771C27.5517 63.7264 27.3169 63.5328 27.091 63.3825C25.1076 62.0546 23.2572 60.5629 21.6178 58.8286C20.1161 57.2402 18.7788 55.5252 17.6345 53.6554C16.8073 52.3037 16.0564 50.9177 15.4521 49.4603C14.9884 48.3393 14.6175 47.1781 14.245 46.0229C14.0072 45.286 13.8202 44.5312 13.6512 43.775C13.5255 43.2063 13.4492 42.6257 13.3804 42.0466C13.2742 41.1579 13.1875 40.2662 13.1037 39.3744C13.0514 38.8177 13.0184 38.2594 12.9766 37.7027C13.0125 37.6997 13.0499 37.6982 13.0887 37.6967Z" fill="white" fill-opacity="0.1"/>
<path d="M22.4644 62.6215C22.6797 62.7019 22.9146 62.7302 23.1405 62.7838C23.1464 62.754 23.1539 62.7242 23.1599 62.696C21.8436 61.5705 20.5901 60.384 19.4398 59.0874C18.0113 57.4796 16.7623 55.7408 15.6674 53.9008C14.7684 52.3898 14.0056 50.7984 13.3878 49.1519C12.9555 47.9997 12.5771 46.8236 12.2704 45.6327C11.9473 44.3777 11.711 43.1004 11.4896 41.8231C11.3535 41.0386 11.2548 40.2392 11.2473 39.4442C11.2323 37.9436 11.2712 36.44 11.334 34.9394C11.3684 34.1326 11.4672 33.3257 11.5913 32.5278C11.7469 31.5378 11.8965 30.5389 12.1597 29.5727C12.5501 28.1361 12.9944 26.7115 13.5 25.3121C13.85 24.3415 14.3421 23.4215 14.7729 22.4806C14.8627 22.2856 14.9584 22.2156 15.1887 22.3541C15.9636 22.823 16.7563 23.2622 17.5431 23.7118C18.0727 24.014 18.6037 24.3162 19.1721 24.6407V2.5918L0.28451 13.4175C0.0032981 13.5798 0.00329807 13.6602 0.268056 13.8105C1.42731 14.4685 2.58656 15.125 3.74431 15.7875C4.23045 16.0644 4.23045 16.0703 3.94774 16.5571C2.99491 18.2007 2.24551 19.938 1.63822 21.7288C1.25978 22.8454 0.989036 24.0021 0.704832 25.1484C0.51636 25.9061 0.360796 26.6743 0.241132 27.4454C0.124459 28.2016 0.00778552 28.9653 0.00180229 29.7275C-0.00866837 31.4008 0.027231 33.0756 0.090055 34.7474C0.118475 35.5096 0.244123 36.2688 0.342846 37.0281L0.344513 37.0407C0.418751 37.6037 0.493361 38.1696 0.618075 38.7237C0.790093 39.4903 0.975573 40.2555 1.21939 41.0014C1.62775 42.2489 2.01516 43.5128 2.54617 44.7112C3.12056 46.0063 3.83705 47.2404 4.51466 48.4894C5.36727 50.0615 6.4622 51.4698 7.61696 52.826C9.46578 54.9965 11.5794 56.8812 13.9412 58.4889C15.464 59.5251 17.0525 60.451 18.7458 61.1805C19.9649 61.706 21.2213 62.1511 22.4644 62.6215Z" fill="white" fill-opacity="0.1"/>
</svg>
