<svg width="684" height="684" viewBox="0 0 684 684" fill="none" xmlns="http://www.w3.org/2000/svg">
<path d="M327.679 1.18457C332.887 0.849041 338.071 0.312936 343.216 0.56543C361.008 1.44071 378.794 1.82175 396.281 5.30957V5.30859C404.278 6.90795 412.24 8.05541 420.162 9.82129C426.05 11.135 431.846 12.9878 437.637 14.8174H437.639C445.677 17.3323 453.729 19.71 461.546 22.7383C471.439 26.5655 481.252 30.7099 490.857 35.2188C505.773 42.208 519.816 50.7339 533.475 59.9775L536.201 61.8359C555.752 75.2616 573.498 90.8 589.802 107.945C606.419 125.419 620.941 144.592 633.417 165.273C640.881 177.661 647.886 190.27 653.303 203.686L653.822 204.986C658.266 216.278 663.086 227.391 666.943 238.836C669.189 245.502 670.837 252.372 672.414 259.272L673.987 266.177C675.361 272.171 676.468 278.229 677.469 284.312L677.892 286.919C678.935 293.479 679.975 300.046 680.531 306.637L680.637 307.955C681.561 320.501 682.4 333.068 682.763 345.633L682.829 348.146C682.972 354.285 682.57 360.452 682.072 366.623L681.559 372.795C680.988 379.759 680.115 386.725 679.02 393.645C678.052 399.738 676.597 405.708 675.383 411.794C674.452 416.463 673.76 421.114 672.671 425.688L672.448 426.601C670.929 432.632 669.315 438.653 667.344 444.539L666.944 445.714C663.574 455.475 660.177 465.235 656.147 474.723V474.724C649.671 490.01 642.163 504.819 633.514 519.039C622.276 537.5 609.467 554.753 594.976 570.768H594.975C580.195 587.118 564.102 602.054 546.423 615.226C529.351 627.93 511.563 639.465 492.213 648.347C480.163 653.879 468.08 659.373 455.715 664.071C446.59 667.54 437.02 669.917 427.505 672.384C418.084 674.83 408.591 677.1 399.038 678.877C391.189 680.336 383.228 681.335 375.252 681.874C362.706 682.716 350.125 683.114 337.537 683.432H337.536C331.556 683.584 325.563 683.481 319.59 683.135L317.031 682.972C309.826 682.464 302.612 681.702 295.529 680.435H295.528C294.268 680.212 293.032 679.614 291.791 678.85C290.535 678.076 289.357 677.189 288.121 676.362C267.726 662.643 248.665 647.288 231.683 629.536L230.045 627.811L228.557 626.219C213.223 609.728 199.539 591.965 187.777 572.655C179.27 558.687 171.529 544.385 165.227 529.385L164.621 527.931C159.703 515.983 155.767 503.605 151.808 491.266C149.602 484.399 147.808 477.383 146.191 470.331L145.509 467.307C144.179 461.261 143.371 455.083 142.64 448.902V448.901C141.512 439.418 140.59 429.902 139.7 420.381C139.16 414.609 138.815 408.831 138.387 403.043C138.485 403.038 138.585 403.033 138.687 403.028C157.594 461.131 193.76 504.862 248.71 531.972C293.591 554.118 341.065 559.632 389.695 547.649C457.513 530.922 506.422 490.094 534.795 426.369C557.484 375.399 559.013 322.569 539.671 270.23C517.829 211.142 477.193 169.149 418.356 145.889C359.028 122.437 300.8 126.817 243.645 154.693V14.7012C252.471 12.5746 261.494 10.1908 270.635 8.29688C280.073 6.34243 289.563 4.51774 299.111 3.32812C307.384 2.30097 315.735 1.90605 324.096 1.40723L327.679 1.18457ZM203.238 262.245C197.48 258.942 192.069 255.848 186.677 252.756C178.308 247.951 169.895 243.267 161.668 238.265H161.667C160.412 237.507 159.365 237.216 158.458 237.566C157.576 237.907 157.014 238.79 156.535 239.835L156.534 239.836C151.974 249.843 146.72 259.718 142.991 270.107C137.613 285.063 132.888 300.289 128.736 315.64C125.93 325.988 124.337 336.684 122.686 347.246L122.685 347.247C121.446 355.244 120.445 363.334 120.022 371.434L119.945 373.054C119.277 389.081 118.864 405.145 119.023 421.18C119.103 429.705 120.156 438.269 121.605 446.661C123.958 460.302 126.472 473.957 129.911 487.378C133.175 500.113 137.202 512.688 141.802 525.006C148.171 542.064 155.99 558.569 165.172 574.275L166.064 575.793C177.351 594.85 190.177 612.894 204.79 629.634L206.209 631.25C218.385 645.041 231.646 657.663 245.563 669.633C245.552 669.684 245.541 669.736 245.529 669.789C244.478 669.554 243.405 669.355 242.379 669.14C241.177 668.887 240.01 668.603 238.901 668.188H238.902C225.68 663.159 212.348 658.415 199.407 652.81C181.45 645.037 164.597 635.167 148.434 624.116C123.37 606.973 100.943 586.879 81.3252 563.738C69.0615 549.266 57.4519 534.26 48.416 517.52C41.206 504.166 33.6089 491.017 27.5156 477.212C21.8856 464.445 17.7775 450.982 13.4336 437.647C10.8501 429.707 8.88378 421.554 7.05664 413.372H7.05566C5.73612 407.481 4.94662 401.462 4.15723 395.446L4.13867 395.312H4.13965C3.08753 387.182 1.75795 379.114 1.45703 371.006V371.005C0.789629 353.16 0.408337 335.285 0.519531 317.428C0.574879 310.343 1.52557 303.241 2.59375 296.163L3.05664 293.132C4.24665 285.427 5.77112 277.749 7.60449 270.164L7.97559 268.648C10.8094 257.164 13.5102 245.613 17.1436 234.411L17.8828 232.176C24.328 213.078 32.2778 194.559 42.3838 177.044L42.3848 177.045C43.13 175.756 43.7107 174.749 44.0664 173.934C44.4206 173.122 44.5976 172.403 44.4189 171.719C44.2397 171.032 43.7339 170.498 43.0273 169.975C42.3188 169.45 41.3197 168.876 40.0381 168.143H40.0391C27.735 161.069 15.4151 154.058 3.09668 147.032C2.40169 146.636 1.9176 146.305 1.61426 146.016C1.30796 145.723 1.25608 145.541 1.25977 145.434C1.2638 145.317 1.33835 145.115 1.67969 144.798C2.01384 144.488 2.53439 144.131 3.27246 143.703L3.27344 143.704L203.238 28.542V262.245Z" stroke="black"/>
</svg>
