<svg width="25" height="25" viewBox="0 0 25 25" fill="none" xmlns="http://www.w3.org/2000/svg">
<path d="M4.74219 9.75293H12.6165" stroke="#5BC4A0" stroke-width="0.8" stroke-miterlimit="10" stroke-linecap="round" stroke-linejoin="round"/>
<path d="M4.74219 11.9141H12.6165" stroke="#5BC4A0" stroke-width="0.8" stroke-miterlimit="10" stroke-linecap="round" stroke-linejoin="round"/>
<path d="M4.74219 14.0762H12.6165" stroke="#5BC4A0" stroke-width="0.8" stroke-miterlimit="10" stroke-linecap="round" stroke-linejoin="round"/>
<path d="M4.74219 16.2373H12.6165" stroke="#5BC4A0" stroke-width="0.8" stroke-miterlimit="10" stroke-linecap="round" stroke-linejoin="round"/>
<path d="M4.74219 19.4043H8.68945" stroke="#5BC4A0" stroke-width="0.8" stroke-miterlimit="10" stroke-linecap="round" stroke-linejoin="round"/>
<mask id="mask0_6303_5600" style="mask-type:luminance" maskUnits="userSpaceOnUse" x="2" y="2" width="21" height="21">
<path d="M2 2H23V23H2V2Z" fill="white"/>
</mask>
<g mask="url(#mask0_6303_5600)">
<path d="M9.68668 6.19138H9.1534C8.94246 6.19138 8.77146 6.02039 8.77146 5.80944V4.81137C8.77146 4.60043 8.94246 4.42943 9.1534 4.42943H15.4685C15.6794 4.42943 15.8504 4.60043 15.8504 4.81137V5.80944C15.8504 6.02039 15.6794 6.19138 15.4685 6.19138H11.1247M18.4579 7.61799V3.52291C18.4579 2.85226 17.9142 2.3086 17.2435 2.3086H6.80763C6.48558 2.3086 6.17669 2.43657 5.94897 2.66428L2.77752 5.83574C2.5498 6.06345 2.42188 6.3723 2.42188 6.69436V21.4791C2.42188 22.1497 2.96554 22.6934 3.63614 22.6934H17.2435C17.9142 22.6934 18.4579 22.1497 18.4579 21.4791V21.0648" stroke="#5BC4A0" stroke-width="0.8" stroke-miterlimit="10" stroke-linecap="round" stroke-linejoin="round"/>
<path d="M16.6172 16.97V20.0771C16.6172 20.3472 16.9134 20.5127 17.1435 20.3711L18.2715 19.6766C18.327 19.6425 18.3898 19.6254 18.4525 19.6254C18.5152 19.6254 18.578 19.6425 18.6335 19.6766L19.7615 20.3711C19.9916 20.5127 20.2878 20.3472 20.2878 20.0771V16.97" stroke="#5BC4A0" stroke-width="0.8" stroke-miterlimit="10" stroke-linecap="round" stroke-linejoin="round"/>
<path d="M18.4551 15.6101C17.2012 15.6101 16.1847 14.5937 16.1847 13.3398C16.1847 12.0859 17.2012 11.0694 18.4551 11.0694C19.709 11.0694 20.7255 12.0859 20.7255 13.3398C20.7255 14.5937 19.709 15.6101 18.4551 15.6101ZM22.4138 13.8591C22.2004 13.5457 22.2004 13.1338 22.4138 12.8205C22.7536 12.3218 22.5309 11.6368 21.963 11.433C21.6061 11.305 21.364 10.9717 21.3525 10.5928C21.3343 9.98973 20.7515 9.56629 20.1723 9.73531C19.8084 9.84146 19.4165 9.71415 19.1845 9.41432C18.9999 9.17578 18.7275 9.05646 18.4551 9.05646C18.1827 9.05646 17.9103 9.17578 17.7257 9.41432C17.4937 9.71415 17.1019 9.84146 16.738 9.73531C16.1588 9.56629 15.576 9.98973 15.5577 10.5928C15.5462 10.9717 15.3041 11.305 14.9473 11.433C14.3794 11.6368 14.1567 12.3218 14.4964 12.8205C14.7099 13.1338 14.7099 13.5457 14.4964 13.8591C14.1567 14.3576 14.3794 15.0428 14.9473 15.2465C15.3041 15.3745 15.5462 15.7078 15.5577 16.0867C15.5747 16.6487 16.0821 17.0548 16.6198 16.9706C16.6591 16.9645 16.6985 16.9557 16.738 16.9442C17.1019 16.838 17.4937 16.9653 17.7257 17.2652C18.095 17.7423 18.8153 17.7423 19.1845 17.2652C19.4165 16.9653 19.8084 16.838 20.1723 16.9442C20.2117 16.9557 20.2512 16.9645 20.2904 16.9706C20.8282 17.0548 21.3356 16.6487 21.3525 16.0867C21.364 15.7078 21.6061 15.3745 21.963 15.2465C22.5309 15.0428 22.7536 14.3576 22.4138 13.8591Z" stroke="#5BC4A0" stroke-width="0.8" stroke-miterlimit="10" stroke-linecap="round" stroke-linejoin="round"/>
<path d="M18.4579 11.0686C17.204 11.0686 16.1875 12.0851 16.1875 13.339C16.1875 14.5929 17.204 15.6094 18.4579 15.6094C19.7118 15.6094 20.7283 14.5929 20.7283 13.339C20.7283 12.0851 19.7118 11.0686 18.4579 11.0686Z" stroke="#5BC4A0" stroke-width="0.8" stroke-miterlimit="10" stroke-linecap="round" stroke-linejoin="round"/>
<path d="M6.30493 2.41772V5.43856C6.30493 5.85438 5.96787 6.19141 5.55213 6.19141H2.53125" stroke="#5BC4A0" stroke-width="0.8" stroke-miterlimit="10" stroke-linecap="round" stroke-linejoin="round"/>
</g>
</svg>
