<svg width="80" height="80" viewBox="0 0 80 80" fill="none" xmlns="http://www.w3.org/2000/svg">
<path fill-rule="evenodd" clip-rule="evenodd" d="M37.241 31.0264C44.4816 32.9671 51.9145 28.6749 53.8551 21.4343C55.7957 14.1936 51.5035 6.76083 44.2629 4.8202C37.0379 2.88426 29.5848 7.18739 27.6488 14.4124C25.7145 21.6374 30.016 29.0905 37.241 31.0264ZM27.5301 66.9171L29.791 64.3436L30.8082 63.1874C31.5832 62.3046 31.4941 60.9311 30.6129 60.1561C29.7316 59.3811 28.3566 59.4702 27.5816 60.3514L27.5785 60.3483C27.5504 60.3827 27.5238 60.4155 27.4957 60.4483L24.3035 64.0796C23.5285 64.9608 23.6176 66.3358 24.4988 67.1108C24.927 67.4874 25.4801 67.6749 26.0551 67.6374C26.6301 67.6014 27.1535 67.3452 27.5301 66.9171ZM32.1645 70.9905C31.3832 71.8811 30.0223 71.9686 29.1332 71.1874C28.2441 70.4046 28.1566 69.0452 28.9379 68.1561L31.1988 65.5827C31.9801 64.6936 33.3395 64.6061 34.2301 65.3874C35.1191 66.1702 35.2066 67.5296 34.4254 68.4186L32.1645 70.9905ZM33.9488 71.7999L33.6004 72.1968C32.8254 73.0796 32.9145 74.4514 33.7957 75.228C34.2238 75.6046 34.777 75.7921 35.352 75.7546C35.927 75.7171 36.4504 75.4608 36.827 75.0327L37.1754 74.6358C37.9566 73.7468 37.8691 72.3874 36.9801 71.6046C36.0973 70.8327 34.7223 70.9186 33.9488 71.7999ZM22.8598 56.3764C23.6441 55.4843 25.0035 55.3999 25.891 56.1811C26.7801 56.9624 26.8676 58.3233 26.0863 59.2124L22.8098 62.9421C22.0285 63.8296 20.6691 63.9202 19.7785 63.1374C18.8895 62.3546 18.802 60.9952 19.5832 60.1061L22.8598 56.3764ZM13.216 54.8671L23.9832 37.0343L20.5723 34.9749L9.80664 52.8077L13.216 54.8671ZM59.0941 36.5186L67.2051 55.7061L70.8754 54.1546L62.7645 34.9671L59.0941 36.5186ZM58.1129 61.7264C59.002 62.5077 59.091 63.8671 58.3082 64.7577C57.5332 65.6405 56.1598 65.728 55.277 64.953L46.627 57.3514C46.2379 57.0108 45.6457 57.0483 45.3035 57.4374C44.9613 57.8264 45.0004 58.4186 45.3895 58.7608L53.0145 65.4639C53.841 66.2483 53.902 67.5843 53.1488 68.4405C52.3676 69.3296 51.0082 69.4171 50.1176 68.6358L42.3113 61.7764C41.9223 61.4343 41.3301 61.4733 40.9879 61.8624C40.6457 62.2514 40.6848 62.8436 41.0738 63.1858L47.5238 68.8546C48.3832 69.6374 48.4582 70.9858 47.691 71.8593C46.9082 72.7499 45.5488 72.8374 44.6598 72.0546L40.5848 68.4733C40.1957 68.1311 39.6035 68.1702 39.2613 68.5593C38.9191 68.9483 38.9582 69.5405 39.3473 69.8827L41.966 72.1843C42.8488 72.9593 42.9363 74.3311 42.1613 75.2139C41.3973 76.0843 40.0535 76.1593 39.1035 75.3874L39.002 75.3046C39.991 73.6702 39.7004 71.5061 38.216 70.2014C37.627 69.6827 36.9129 69.3577 36.1504 69.2468C37.2613 67.5952 37.0004 65.3311 35.4676 63.9827C34.7613 63.3624 33.8988 63.0358 33.027 62.9905C33.502 61.478 33.0535 59.8124 31.8488 58.753C31.0441 58.0452 30.0082 57.6936 28.9348 57.7639C28.7848 57.7733 28.6379 57.7921 28.4926 57.8171C28.4973 56.6936 28.0363 55.5749 27.1285 54.7764C25.4613 53.3124 22.916 53.4764 21.452 55.1421L21.0676 55.5796C20.1504 54.5671 18.5395 53.5733 16.5207 53.0249L24.4973 39.8139C27.5223 41.7999 30.5879 41.5155 32.8801 41.3014C33.6504 41.2296 34.3613 41.1639 34.9051 41.2046C34.5066 41.5499 34.1426 41.8593 33.791 42.1249C30.4863 44.6327 30.8988 47.3546 31.2613 49.7546C31.4504 51.0093 31.6301 52.1952 31.3363 53.378C30.9707 54.8468 31.5598 55.5686 31.9426 55.8671C32.7473 56.4968 34.0191 56.428 35.4316 55.6796C37.4426 54.6139 39.3895 52.3171 39.2051 49.5858C39.1395 48.6218 39.5926 47.5983 40.2582 47.2061C40.6926 46.9483 41.1754 46.9889 41.7316 47.3311L58.1129 61.7264ZM58.2566 39.3514L64.577 54.2999C62.6348 55.1264 62.0488 56.0655 61.4816 56.9749C60.9551 57.8202 60.4535 58.6218 58.4801 59.5499L42.9145 45.8718C42.8785 45.8405 42.841 45.8124 42.802 45.7874C41.6191 45.028 40.377 44.9577 39.3051 45.5905C38.0332 46.3421 37.2238 48.0358 37.3363 49.7093C37.4598 51.5561 36.077 53.0936 34.8551 53.8483C33.916 54.4296 33.2691 54.4514 33.1145 54.3921C33.1004 54.3436 33.0707 54.1796 33.1582 53.8264C33.5426 52.2796 33.3176 50.7874 33.1176 49.4702C32.7785 47.2233 32.5098 45.4483 34.927 43.6139C35.466 43.2046 36.027 42.7124 36.6223 42.1921C37.7473 41.2046 39.0207 40.0889 40.7629 38.9468C42.5441 38.0702 44.777 38.5999 47.3598 39.2108C50.5957 39.978 54.2363 40.8405 58.2566 39.3514ZM39.6613 22.9483C39.0676 23.5421 38.0926 23.5421 37.4988 22.9483L33.9535 19.403C33.3582 18.8077 33.3582 17.8374 33.9535 17.2405C34.5488 16.6436 35.5207 16.6452 36.116 17.2405L37.9176 19.0421C38.2832 19.4077 38.877 19.4077 39.2441 19.0421L45.3895 12.8968C46.3348 11.9514 47.9973 12.5999 47.9973 13.978C47.9973 14.3889 47.8395 14.7718 47.552 15.0593L39.6613 22.9483ZM48.877 16.3858L40.9879 24.2749C39.6629 25.5999 37.4988 25.6014 36.1738 24.2749L32.6285 20.7296C31.302 19.403 31.302 17.2436 32.6285 15.9155C33.9551 14.5874 36.1145 14.5889 37.4426 15.9155L38.5801 17.053L44.0629 11.5718C45.3895 10.2452 47.5488 10.2452 48.877 11.5718C50.202 12.8968 50.202 15.0593 48.877 16.3858Z" fill="url(#paint0_linear_6913_242)"/>
<defs>
<linearGradient id="paint0_linear_6913_242" x1="15" y1="10.9999" x2="71" y2="75.9999" gradientUnits="userSpaceOnUse">
<stop stop-color="#5BC4A0"/>
<stop offset="1" stop-color="#379373"/>
</linearGradient>
</defs>
</svg>
