<svg width="80" height="80" viewBox="0 0 80 80" fill="none" xmlns="http://www.w3.org/2000/svg">
<path d="M53.3156 49.523V58.4433C52.3545 58.3818 51.4084 57.9867 50.677 57.254L47.9715 54.5457C47.1855 54.9299 46.3707 55.2662 45.5381 55.5574V59.3826C45.5381 61.6492 43.6898 63.4948 41.4258 63.4948H34.85C32.5834 63.4948 30.7378 61.6506 30.7378 59.3826V55.5574C29.9011 55.2662 29.0904 54.9299 28.3043 54.5457L25.5961 57.254C23.9952 58.8548 21.384 58.8548 19.7832 57.254L15.1323 52.6044C13.5314 51.0036 13.5314 48.3924 15.1323 46.7874L17.8378 44.0819C17.4577 43.2958 17.1173 42.481 16.8302 41.6484H13.0009C10.7384 41.6484 8.88867 39.8001 8.88867 37.5362V30.9604C8.88867 28.6937 10.737 26.8481 13.0009 26.8481H16.8302C17.1173 26.0115 17.4577 25.2008 17.8378 24.4147L15.1323 21.7064C13.5314 20.1056 13.5314 17.4944 15.1323 15.8935L19.7832 11.2426C21.384 9.64172 23.9952 9.64172 25.5961 11.2426L28.3043 13.9508C29.0904 13.5667 29.9011 13.2304 30.7378 12.9392V9.11128C30.7378 6.84872 32.582 4.99902 34.85 4.99902H41.4258C43.6884 4.99902 45.5381 6.84735 45.5381 9.11128V12.9405C46.3707 13.2317 47.1855 13.5681 47.9715 13.9481L50.677 11.2426C52.2779 9.64172 54.8891 9.64172 56.4941 11.2426L61.145 15.8935C62.7459 17.4944 62.7459 20.1056 61.145 21.7064L58.434 24.4147C58.8182 25.2008 59.1545 26.0115 59.4457 26.8481H63.2708C64.2634 26.8481 65.1739 27.2008 65.8861 27.7901C65.3625 27.8174 64.8403 27.9446 64.3399 28.1811C62.8949 28.8591 61.9953 30.2741 61.9953 31.8709V37.6606C61.9953 38.5205 61.2858 39.2341 60.4218 39.2341C59.5619 39.2341 58.8482 38.5205 58.8482 37.6606V31.8709C58.8482 30.2741 57.9528 28.8591 56.5078 28.1811C55.0627 27.4989 53.4003 27.7121 52.1713 28.7279C51.7953 29.0423 51.4344 29.3745 51.1022 29.7245C49.2306 24.3655 44.1341 20.5212 38.1352 20.5212C30.5546 20.5212 24.4094 26.6677 24.4094 34.2469C24.4094 41.8303 30.556 47.9768 38.1352 47.9768C42.201 47.9768 45.8471 46.2091 48.3625 43.4038C49.3318 45.8837 51.0489 48.0356 53.3156 49.523ZM67.2354 30.4682C66.6818 30.0075 65.9531 29.9187 65.3024 30.2235C64.6475 30.5298 64.2565 31.1491 64.2565 31.8709V37.6606C64.2565 39.7646 62.5326 41.4898 60.4245 41.4898C58.3205 41.4898 56.5953 39.7659 56.5953 37.6606V31.8709C56.5953 31.1504 56.2043 30.5298 55.5494 30.2235C54.8987 29.9173 54.17 30.0062 53.615 30.4682C51.2471 32.4287 49.7392 35.3898 49.7392 38.7037C49.7392 42.8583 52.1111 46.462 55.5754 48.2297V70.2018C55.5754 72.8445 57.7299 74.999 60.3726 74.999H60.4778C63.1205 74.999 65.275 72.8445 65.275 70.2018V48.2283C68.7393 46.4607 71.1112 42.857 71.1112 38.7023C71.1112 35.3898 69.6033 32.43 67.2354 30.4682ZM31.4938 42.2992C32.1172 42.2992 32.6258 41.7947 32.6258 41.1713V38.2334C33.2382 37.8533 33.6456 37.1753 33.6456 36.4042C33.6456 35.6373 33.2382 34.9592 32.6258 34.5791V27.3253C32.6258 26.7019 32.1186 26.1933 31.4938 26.1933C30.8704 26.1933 30.3659 26.7005 30.3659 27.3253V34.5791C29.7535 34.9592 29.3433 35.6373 29.3433 36.4042C29.3433 37.1753 29.7535 37.8533 30.3659 38.2334V41.1713C30.3659 41.7961 30.8704 42.2992 31.4938 42.2992ZM38.1366 42.2992C38.76 42.2992 39.2644 41.7947 39.2644 41.1713V33.9174C39.8769 33.5374 40.287 32.8593 40.287 32.0883C40.287 31.3213 39.8769 30.6432 39.2644 30.2632V27.3253C39.2644 26.7019 38.76 26.1933 38.1366 26.1933C37.5132 26.1933 37.0087 26.7005 37.0087 27.3253V30.2632C36.3962 30.6432 35.9861 31.3213 35.9861 32.0883C35.9861 32.8593 36.3962 33.5374 37.0087 33.9174V41.1713C37.0087 41.7961 37.5118 42.2992 38.1366 42.2992ZM44.778 42.2992C45.4014 42.2992 45.9058 41.7947 45.9058 41.1713V38.2334C46.5183 37.8533 46.9284 37.1753 46.9284 36.4042C46.9284 35.6373 46.5183 34.9592 45.9058 34.5791V27.3253C45.9058 26.7019 45.4014 26.1933 44.778 26.1933C44.1546 26.1933 43.6501 26.7005 43.6501 27.3253V34.5791C43.0376 34.9592 42.6275 35.6373 42.6275 36.4042C42.6275 37.1753 43.0376 37.8533 43.6501 38.2334V41.1713C43.6501 41.7961 44.1546 42.2992 44.778 42.2992Z" fill="url(#paint0_linear_6913_3154)"/>
<defs>
<linearGradient id="paint0_linear_6913_3154" x1="14.1802" y1="11.4973" x2="68.5828" y2="77.2734" gradientUnits="userSpaceOnUse">
<stop stop-color="#5BC4A0"/>
<stop offset="1" stop-color="#379373"/>
</linearGradient>
</defs>
</svg>
