<svg width="67" height="70" viewBox="0 0 67 70" fill="none" xmlns="http://www.w3.org/2000/svg">
<path d="M24.5121 31.8071L0 17.6543V52.5256L24.5121 66.8243C24.5121 63.1767 24.658 79.664 24.5121 31.8071Z" fill="url(#paint0_linear_6913_1827)"/>
<path d="M9.92054 10.9424L0.728516 16.3409L0.874421 16.4868L25.2406 30.4937L34.4326 25.2411L9.92054 10.9424Z" fill="url(#paint1_linear_6913_1827)"/>
<path d="M42.6026 20.5721L18.0905 6.27344L11.3789 10.067L35.891 24.3657C36.0369 24.2198 43.0403 20.2803 42.6026 20.5721Z" fill="url(#paint2_linear_6913_1827)"/>
<path d="M53.4008 14.2987L28.8887 0L19.5508 5.39849L44.0628 19.6972L53.4008 14.2987Z" fill="url(#paint3_linear_6913_1827)"/>
<path d="M52.6719 52.5258V62.5933L62.4475 56.903V46.9814L52.6719 52.5258Z" fill="url(#paint4_linear_6913_1827)"/>
<path d="M66.8243 33.1203C66.8243 32.5366 66.6784 32.0989 66.2407 31.953C66.0948 31.953 60.4045 29.9104 60.8422 30.0563C60.4045 29.9104 59.6749 30.0563 59.2372 30.3481L56.465 31.953C55.7355 32.3907 55.006 33.1203 54.5683 33.8498L49.1698 41.8746C48.5862 42.8959 48.1484 43.9172 48.1484 44.6468V53.6929V68.7211C48.1484 69.8883 48.7321 70.3261 49.8993 69.7424L64.3439 61.4259C65.6571 60.6963 66.8243 58.6537 66.8243 57.1946V33.1203ZM57.1946 37.0597C59.0913 36.0384 60.8422 36.9138 60.8422 39.1024C60.8422 40.9991 59.6749 43.0418 58.07 44.0632C56.3191 45.0845 54.4224 44.355 54.4224 42.0205C54.2765 40.1237 55.5896 37.9351 57.1946 37.0597ZM63.6144 58.07L52.3797 64.4899C52.0879 64.6358 51.7961 64.6358 51.6502 64.4899C51.3584 64.344 51.2124 64.0522 51.2124 63.7603V51.942C51.2124 51.6502 51.3584 51.3584 51.6502 51.2125L62.8849 44.6468C63.1767 44.5009 63.4685 44.5009 63.6144 44.6468C63.9062 44.7927 64.0521 45.0845 64.0521 45.3763V57.1946C64.0521 57.6323 63.9062 57.9241 63.6144 58.07Z" fill="url(#paint5_linear_6913_1827)"/>
<path d="M55.7345 30.6398L58.5067 29.0349C58.9445 28.743 59.5281 28.5971 59.8199 28.4512L55.8805 27.1381C55.5886 26.9922 55.2968 27.1381 55.1509 27.1381C54.8591 27.1381 54.5673 27.284 54.4214 27.4299L51.6492 29.0349C50.9197 29.4726 50.1902 30.2021 49.7524 30.9316C49.6065 31.0775 44.0621 39.54 44.3539 39.1023C43.7703 39.9777 43.4785 41.145 43.4785 41.8745V46.8353V58.2159V65.9488C43.4785 66.5325 43.6244 66.9702 43.9162 67.1161L46.9802 68.8669V53.8387V44.7926C46.9802 43.9172 47.418 42.4581 48.1475 41.145L53.546 32.9743C53.9837 31.953 55.005 31.0775 55.7345 30.6398Z" fill="url(#paint6_linear_6913_1827)"/>
<path d="M48.2936 30.2024C48.8772 29.327 49.7527 28.4516 50.774 27.8679L53.5462 26.263C53.838 26.1171 53.9839 25.9712 54.2757 25.9712V15.7578L44.9378 21.1563V29.9106C44.9378 30.2024 44.7919 30.4942 44.5001 30.6401L36.3294 35.1632C36.1835 35.1632 36.0376 35.3091 35.8917 35.3091C35.7458 35.3091 35.5999 35.3091 35.454 35.1632C35.1621 35.0173 35.0162 34.7255 35.0162 34.4337V26.5548L25.8242 31.8074C26.116 79.6642 26.116 63.177 26.116 66.8246L41.8738 57.7785V47.1274V41.8748C41.8738 40.7076 42.3115 39.2485 43.041 38.3731C43.041 38.0813 48.7313 29.6188 48.2936 30.2024Z" fill="url(#paint7_linear_6913_1827)"/>
<defs>
<linearGradient id="paint0_linear_6913_1827" x1="2.09005" y1="22.2189" x2="38.268" y2="46.8151" gradientUnits="userSpaceOnUse">
<stop stop-color="#5BC4A0"/>
<stop offset="1" stop-color="#379373"/>
</linearGradient>
<linearGradient id="paint1_linear_6913_1827" x1="3.59475" y1="12.7574" x2="14.7589" y2="38.9352" gradientUnits="userSpaceOnUse">
<stop stop-color="#5BC4A0"/>
<stop offset="1" stop-color="#379373"/>
</linearGradient>
<linearGradient id="paint2_linear_6913_1827" x1="14.0359" y1="7.95299" x2="24.3544" y2="32.1902" gradientUnits="userSpaceOnUse">
<stop stop-color="#5BC4A0"/>
<stop offset="1" stop-color="#379373"/>
</linearGradient>
<linearGradient id="paint3_linear_6913_1827" x1="22.4294" y1="1.82854" x2="33.7012" y2="28.1763" gradientUnits="userSpaceOnUse">
<stop stop-color="#5BC4A0"/>
<stop offset="1" stop-color="#379373"/>
</linearGradient>
<linearGradient id="paint4_linear_6913_1827" x1="53.5032" y1="48.4307" x2="65.6983" y2="58.8174" gradientUnits="userSpaceOnUse">
<stop stop-color="#5BC4A0"/>
<stop offset="1" stop-color="#379373"/>
</linearGradient>
<linearGradient id="paint5_linear_6913_1827" x1="49.7367" y1="33.7124" x2="78.3825" y2="51.9041" gradientUnits="userSpaceOnUse">
<stop stop-color="#5BC4A0"/>
<stop offset="1" stop-color="#379373"/>
</linearGradient>
<linearGradient id="paint6_linear_6913_1827" x1="44.8682" y1="30.9531" x2="72.2867" y2="45.5351" gradientUnits="userSpaceOnUse">
<stop stop-color="#5BC4A0"/>
<stop offset="1" stop-color="#379373"/>
</linearGradient>
<linearGradient id="paint7_linear_6913_1827" x1="28.2438" y1="20.4985" x2="67.1439" y2="49.9777" gradientUnits="userSpaceOnUse">
<stop stop-color="#5BC4A0"/>
<stop offset="1" stop-color="#379373"/>
</linearGradient>
</defs>
</svg>
