<svg width="24" height="24" viewBox="0 0 24 24" fill="none" xmlns="http://www.w3.org/2000/svg">
<path d="M6.74288 21.9498C5.60547 21.9501 4.49352 21.613 3.54773 20.9812C2.60194 20.3494 1.86481 19.4512 1.42963 18.4004C0.994447 17.3495 0.88076 16.1932 1.10295 15.0777C1.32515 13.9622 1.87324 12.9377 2.67788 12.1338L11.1629 3.64775C11.3036 3.50706 11.4944 3.42801 11.6934 3.42801C11.8924 3.42801 12.0832 3.50706 12.2239 3.64775C12.3646 3.78845 12.4436 3.97928 12.4436 4.17825C12.4436 4.37723 12.3646 4.56806 12.2239 4.70875L3.73788 13.1938C3.32705 13.5847 2.99862 14.054 2.77194 14.5738C2.54527 15.0937 2.42493 15.6536 2.41803 16.2207C2.41112 16.7878 2.51778 17.3505 2.73172 17.8758C2.94567 18.401 3.26257 18.8781 3.66376 19.2789C4.06494 19.6798 4.5423 19.9963 5.0677 20.2098C5.59311 20.4233 6.15593 20.5295 6.72301 20.5221C7.29009 20.5147 7.84996 20.3939 8.36963 20.1668C8.8893 19.9397 9.35826 19.6109 9.74888 19.1998L20.7089 8.23975C21.2111 7.72112 21.4894 7.02584 21.4836 6.3039C21.4778 5.58196 21.1884 4.89124 20.6779 4.38074C20.1674 3.87023 19.4767 3.58087 18.7547 3.57507C18.0328 3.56928 17.3375 3.84751 16.8189 4.34975L7.98088 13.1938C7.74643 13.4282 7.61471 13.7462 7.61471 14.0778C7.61471 14.4093 7.74643 14.7273 7.98088 14.9618C8.21533 15.1962 8.53331 15.3279 8.86488 15.3279C9.19644 15.3279 9.51443 15.1962 9.74888 14.9618L15.4039 9.30575C15.473 9.23409 15.5558 9.17691 15.6472 9.13757C15.7387 9.09822 15.8371 9.07748 15.9367 9.07657C16.0363 9.07566 16.1351 9.09459 16.2273 9.13225C16.3194 9.16992 16.4032 9.22557 16.4737 9.29596C16.5441 9.36634 16.5998 9.45005 16.6376 9.54221C16.6754 9.63436 16.6944 9.73311 16.6936 9.8327C16.6927 9.93228 16.6721 10.0307 16.6328 10.1222C16.5936 10.2137 16.5365 10.2965 16.4649 10.3658L10.8089 16.0228C10.2932 16.5386 9.59365 16.8285 8.86423 16.8285C8.13481 16.8286 7.43522 16.539 6.91938 16.0233C6.40353 15.5075 6.11368 14.808 6.11359 14.0786C6.11349 13.3492 6.40316 12.6496 6.91888 12.1338L15.7589 3.29975C16.5559 2.50264 17.6368 2.05478 18.764 2.05469C19.8912 2.05459 20.9723 2.50228 21.7694 3.29925C22.5665 4.09623 23.0143 5.17721 23.0144 6.3044C23.0145 7.43159 22.5669 8.51265 21.7699 9.30975L10.8099 20.2658C10.2769 20.8014 9.6431 21.226 8.94501 21.515C8.24692 21.8041 7.49844 21.9518 6.74288 21.9498Z" fill="#3F4255"/>
</svg>
