<svg width="504" height="504" viewBox="0 0 504 504" fill="none" xmlns="http://www.w3.org/2000/svg">
<path d="M102.543 296.578C116.43 339.433 143.056 371.665 183.558 391.635C216.571 407.915 251.482 411.967 287.249 403.159C337.138 390.862 373.104 360.855 393.976 314.006C410.664 276.539 411.789 237.713 397.562 199.238C381.495 155.798 351.611 124.936 308.332 107.836C264.514 90.5254 221.516 93.84 179.292 114.571C179.292 80.0313 179.292 45.5505 179.292 10.5427C185.878 8.96157 192.64 7.1696 199.484 5.75242C206.445 4.31182 213.453 2.96492 220.508 2.0865C227.493 1.2198 234.56 0.962128 241.591 0.505352C245.412 0.259396 249.267 -0.13882 253.088 0.0485758C266.19 0.692747 279.339 0.97384 292.265 3.55053C298.124 4.72175 304.043 5.57674 309.879 6.87679C314.238 7.84891 318.528 9.21924 322.793 10.5661C328.712 12.4167 334.665 14.1735 340.442 16.4105C347.743 19.2332 354.986 22.2901 362.076 25.6163C373.83 31.1211 384.846 37.9142 395.558 45.2577C409.996 55.1662 423.098 66.6325 435.133 79.2817C447.403 92.1768 458.126 106.325 467.338 121.586C473.022 131.015 478.354 140.63 482.409 150.902C485.678 159.206 489.241 167.416 492.089 175.861C494.304 182.431 495.733 189.271 497.292 196.041C498.452 201.1 499.355 206.219 500.175 211.349C500.995 216.502 501.816 221.679 502.202 226.879C502.929 236.741 503.585 246.626 503.82 256.511C503.96 262.566 503.386 268.656 502.882 274.712C502.46 279.853 501.816 284.995 501.007 290.101C500.292 294.599 499.214 299.026 498.323 303.488C497.597 307.131 497.058 310.82 496.155 314.416C494.96 319.159 493.682 323.903 492.089 328.529C489.604 335.72 487.096 342.923 484.12 349.927C479.338 361.206 473.795 372.134 467.408 382.628C459.111 396.249 449.654 408.98 438.954 420.798C428.043 432.862 416.16 443.883 403.105 453.604C390.507 462.974 377.37 471.488 363.072 478.047C354.189 482.123 345.271 486.176 336.142 489.642C329.391 492.207 322.313 493.964 315.305 495.78C308.355 497.583 301.347 499.258 294.292 500.57C288.491 501.647 282.608 502.385 276.714 502.783C267.455 503.404 258.174 503.697 248.892 503.931C243.841 504.06 238.779 503.943 233.739 503.592C228.419 503.217 223.087 502.655 217.848 501.718C215.856 501.366 214.016 499.844 212.246 498.661C196.707 488.213 182.21 476.478 169.366 462.833C157.6 450.336 147.123 436.844 138.158 422.133C131.677 411.499 125.794 400.594 121.059 389.128C117.426 380.309 114.52 371.173 111.602 362.085C109.739 356.287 108.274 350.349 106.949 344.399C105.965 339.925 105.367 335.357 104.828 330.801C103.996 323.809 103.316 316.794 102.66 309.778C102.25 305.398 101.992 301.006 101.664 296.625C101.945 296.602 102.238 296.59 102.543 296.578Z" fill="#1B2978" fill-opacity="0.03"/>
<path d="M176.001 492.675C177.689 493.307 179.529 493.53 181.298 493.951C181.345 493.717 181.404 493.483 181.451 493.26C171.138 484.406 161.317 475.071 152.305 464.87C141.113 452.221 131.328 438.541 122.749 424.065C115.706 412.177 109.729 399.656 104.889 386.703C101.502 377.637 98.5373 368.385 96.1349 359.015C93.6035 349.142 91.7519 339.093 90.0175 329.043C88.951 322.871 88.1775 316.582 88.1189 310.327C88.0018 298.521 88.3064 286.692 88.7987 274.886C89.0682 268.538 89.8417 262.19 90.8144 255.912C92.0332 248.124 93.2051 240.265 95.2676 232.664C98.3264 221.361 101.807 210.153 105.768 199.143C108.51 191.507 112.366 184.269 115.741 176.867C116.444 175.332 117.194 174.782 118.999 175.871C125.07 179.561 131.281 183.016 137.445 186.553C141.594 188.93 145.754 191.308 150.207 193.861V20.3916L2.22905 105.563C0.0258396 106.839 0.0258393 107.472 2.10014 108.655C11.1825 113.832 20.2649 118.997 29.3355 124.209C33.1443 126.387 33.1443 126.434 30.9293 130.264C23.4642 143.194 17.5929 156.862 12.8349 170.952C9.86995 179.736 7.74878 188.837 5.52214 197.855C4.04552 203.817 2.82672 209.86 1.88919 215.927C0.975093 221.877 0.0609971 227.885 0.0141203 233.882C-0.0679139 247.046 0.213347 260.223 0.705552 273.375C0.928217 279.372 1.91263 285.345 2.68609 291.318L2.69917 291.418C3.28079 295.848 3.86533 300.299 4.84242 304.659C6.19013 310.69 7.64331 316.711 9.55354 322.578C12.7529 332.393 15.7881 342.337 19.9485 351.765C24.4486 361.955 30.0621 371.664 35.3709 381.491C42.0508 393.859 50.6293 404.939 59.6765 415.608C74.1614 432.685 90.7206 447.512 109.225 460.162C121.155 468.313 133.601 475.598 146.867 481.337C156.418 485.472 166.262 488.974 176.001 492.675Z" fill="#1B2978" fill-opacity="0.03"/>
</svg>
