<svg width="56" height="56" viewBox="0 0 56 56" fill="none" xmlns="http://www.w3.org/2000/svg">
<path fill-rule="evenodd" clip-rule="evenodd" d="M12.5577 34.0195C7.06506 32.9555 2.91406 28.1162 2.91406 22.3155C2.91406 15.7355 8.25506 10.3945 14.8351 10.3945C21.4151 10.3945 26.7561 15.7355 26.7561 22.3155C26.7561 31.0842 23.8021 36.5302 20.3347 39.9345C15.0264 45.1472 8.37873 45.5999 8.37873 45.5999C7.70206 45.6489 7.0604 45.3012 6.72906 44.7109C6.3954 44.1229 6.43506 43.3925 6.82706 42.8419C6.82706 42.8419 9.9864 38.3945 11.9557 35.1045C12.1611 34.7592 12.3687 34.3789 12.5577 34.0195ZM14.8351 13.8945C10.1871 13.8945 6.41406 17.6675 6.41406 22.3155C6.41406 26.9635 10.1871 30.7365 14.8351 30.7365C15.4954 30.7365 15.9574 31.0072 16.2934 31.3945C16.5757 31.7212 16.8417 32.2439 16.7507 33.0115C16.6714 33.6765 15.9901 35.1792 14.9587 36.9035C14.1747 38.2102 13.2111 39.6942 12.3174 41.0265C14.0417 40.3405 16.0577 39.2299 17.8824 37.4355C20.8504 34.5235 23.2561 29.8195 23.2561 22.3155C23.2561 17.6675 19.4831 13.8945 14.8351 13.8945Z" fill="#5681BC" fill-opacity="0.41"/>
<path fill-rule="evenodd" clip-rule="evenodd" d="M38.8859 34.0195C33.3932 32.9555 29.2422 28.1162 29.2422 22.3155C29.2422 15.7355 34.5832 10.3945 41.1632 10.3945C47.7432 10.3945 53.0842 15.7355 53.0842 22.3155C53.0842 31.0842 50.1302 36.5302 46.6629 39.9345C41.3545 45.1472 34.7069 45.5999 34.7069 45.5999C34.0302 45.6489 33.3885 45.3012 33.0572 44.7109C32.7259 44.1229 32.7632 43.3925 33.1552 42.8419C33.1552 42.8419 36.3145 38.3945 38.2839 35.1045C38.4892 34.7592 38.6969 34.3789 38.8859 34.0195ZM41.1632 13.8945C36.5152 13.8945 32.7422 17.6675 32.7422 22.3155C32.7422 26.9635 36.5152 30.7365 41.1632 30.7365C41.8235 30.7365 42.2855 31.0072 42.6215 31.3945C42.9039 31.7212 43.1699 32.2439 43.0789 33.0115C42.9995 33.6765 42.3182 35.1792 41.2869 36.9035C40.5029 38.2102 39.5392 39.6942 38.6455 41.0265C40.3699 40.3405 42.3859 39.2299 44.2105 37.4355C47.1785 34.5235 49.5842 29.8195 49.5842 22.3155C49.5842 17.6675 45.8112 13.8945 41.1632 13.8945Z" fill="#5681BC" fill-opacity="0.41"/>
</svg>
