<svg width="56" height="56" viewBox="0 0 56 56" fill="none" xmlns="http://www.w3.org/2000/svg">
<path fill-rule="evenodd" clip-rule="evenodd" d="M43.4423 34.0195C48.9349 32.9555 53.0859 28.1162 53.0859 22.3155C53.0859 15.7355 47.7449 10.3945 41.1649 10.3945C34.5849 10.3945 29.2439 15.7355 29.2439 22.3155C29.2439 31.0842 32.1979 36.5302 35.6653 39.9345C40.9736 45.1472 47.6213 45.5999 47.6213 45.5999C48.2979 45.6489 48.9396 45.3012 49.2709 44.7109C49.6046 44.1229 49.5649 43.3925 49.1729 42.8419C49.1729 42.8419 46.0136 38.3945 44.0443 35.1045C43.8389 34.7592 43.6313 34.3789 43.4423 34.0195ZM41.1649 13.8945C45.8129 13.8945 49.5859 17.6675 49.5859 22.3155C49.5859 26.9635 45.8129 30.7365 41.1649 30.7365C40.5046 30.7365 40.0426 31.0072 39.7066 31.3945C39.4243 31.7212 39.1583 32.2439 39.2493 33.0115C39.3286 33.6765 40.0099 35.1792 41.0413 36.9035C41.8253 38.2102 42.7889 39.6942 43.6826 41.0265C41.9583 40.3405 39.9423 39.2299 38.1176 37.4355C35.1496 34.5235 32.7439 29.8195 32.7439 22.3155C32.7439 17.6675 36.5169 13.8945 41.1649 13.8945Z" fill="#5681BC" fill-opacity="0.41"/>
<path fill-rule="evenodd" clip-rule="evenodd" d="M17.1141 34.0195C22.6068 32.9555 26.7578 28.1162 26.7578 22.3155C26.7578 15.7355 21.4168 10.3945 14.8368 10.3945C8.25681 10.3945 2.91581 15.7355 2.91581 22.3155C2.91581 31.0842 5.86981 36.5302 9.33715 39.9345C14.6455 45.1472 21.2931 45.5999 21.2931 45.5999C21.9698 45.6489 22.6115 45.3012 22.9428 44.7109C23.2741 44.1229 23.2368 43.3925 22.8448 42.8419C22.8448 42.8419 19.6855 38.3945 17.7161 35.1045C17.5108 34.7592 17.3031 34.3789 17.1141 34.0195ZM14.8368 13.8945C19.4848 13.8945 23.2578 17.6675 23.2578 22.3155C23.2578 26.9635 19.4848 30.7365 14.8368 30.7365C14.1765 30.7365 13.7145 31.0072 13.3785 31.3945C13.0961 31.7212 12.8301 32.2439 12.9211 33.0115C13.0005 33.6765 13.6818 35.1792 14.7131 36.9035C15.4971 38.2102 16.4608 39.6942 17.3545 41.0265C15.6301 40.3405 13.6141 39.2299 11.7895 37.4355C8.82148 34.5235 6.41581 29.8195 6.41581 22.3155C6.41581 17.6675 10.1888 13.8945 14.8368 13.8945Z" fill="#5681BC" fill-opacity="0.41"/>
</svg>
